<?xml version="1.0" standalone="no"?>
<!DOCTYPE svg PUBLIC "-//W3C//DTD SVG 20010904//EN"
 "http://www.w3.org/TR/2001/REC-SVG-20010904/DTD/svg10.dtd">
<svg version="1.0" xmlns="http://www.w3.org/2000/svg"
 width="3400.000000pt" height="1758.000000pt" viewBox="0 0 3400.000000 1758.000000"
 preserveAspectRatio="xMidYMid meet">

<g transform="translate(0.000000,1758.000000) scale(0.100000,-0.100000)"
fill="#000000" stroke="none">
<path d="M19995 15574 c-415 -45 -822 -274 -1057 -595 -296 -402 -383 -904
-237 -1369 41 -129 145 -336 224 -445 223 -310 567 -526 955 -601 131 -25 406
-25 545 0 208 38 382 105 548 212 99 64 206 175 243 249 25 52 29 71 29 145
-1 67 -6 96 -24 138 -30 67 -122 154 -188 176 -137 47 -228 29 -388 -78 -289
-194 -522 -221 -801 -91 -298 137 -507 422 -521 710 -13 247 62 442 236 615
176 174 391 259 630 247 162 -7 307 -61 456 -169 110 -80 165 -102 260 -102
103 0 184 34 251 106 68 73 89 126 89 228 0 117 -30 183 -129 278 -164 159
-413 278 -683 327 -86 16 -359 27 -438 19z"/>
<path d="M25262 15570 c-237 -30 -490 -129 -692 -271 -94 -66 -244 -210 -315
-303 -359 -470 -423 -1102 -163 -1621 82 -162 159 -269 292 -400 246 -244 515
-382 841 -431 156 -23 400 -15 545 19 646 152 1110 683 1181 1352 42 397 -104
847 -373 1151 -224 252 -526 424 -858 489 -100 20 -354 28 -458 15z m357 -695
c147 -31 272 -98 389 -209 116 -110 192 -237 238 -396 26 -90 26 -336 1 -430
-78 -285 -309 -516 -592 -591 -111 -30 -307 -30 -416 -1 -225 60 -428 230
-538 449 -94 187 -106 440 -30 646 75 206 255 398 454 486 131 58 343 78 494
46z"/>
<path d="M28395 15569 c-293 -39 -580 -169 -806 -363 -235 -202 -421 -523
-489 -844 -27 -126 -37 -357 -21 -488 63 -512 376 -958 836 -1188 139 -70 261
-111 410 -136 735 -126 1450 307 1688 1021 63 187 72 250 72 484 0 234 -10
300 -70 482 -76 228 -200 428 -370 598 -214 214 -478 356 -774 416 -112 23
-370 33 -476 18z m364 -694 c308 -73 546 -308 627 -620 26 -102 24 -312 -4
-417 -70 -259 -278 -484 -525 -569 -246 -84 -520 -50 -728 92 -176 119 -303
303 -350 506 -29 124 -23 320 11 428 93 291 334 518 615 580 83 19 275 18 354
0z"/>
<path d="M17418 15555 c-92 -18 -190 -53 -278 -102 -89 -49 -235 -197 -285
-287 -137 -246 -162 -572 -65 -824 100 -260 352 -469 705 -587 225 -75 285
-135 302 -301 5 -45 1 -62 -22 -110 -38 -77 -95 -114 -179 -114 -86 0 -129 25
-248 146 -59 61 -124 117 -153 132 -45 24 -61 27 -150 27 -117 0 -158 -16
-231 -91 -60 -62 -84 -131 -84 -243 0 -332 273 -578 720 -646 246 -38 457 4
642 127 283 190 427 512 390 875 -41 407 -219 612 -729 840 -227 101 -278 134
-315 207 -15 30 -19 53 -16 98 7 101 83 178 175 178 82 0 121 -27 189 -132
122 -189 362 -223 522 -74 127 119 145 282 50 470 -91 180 -287 333 -508 397
-98 28 -319 35 -432 14z"/>
<path d="M6535 15540 c-95 -38 -169 -119 -199 -220 -14 -48 -16 -182 -16
-1260 0 -1330 -3 -1263 62 -1358 36 -52 107 -106 167 -127 64 -22 178 -19 245
6 73 27 148 96 183 167 l28 57 0 1255 0 1255 -28 56 c-31 63 -93 126 -159 160
-62 33 -212 37 -283 9z"/>
<path d="M7474 15546 c-139 -44 -224 -166 -224 -324 0 -72 7 -96 109 -387 60
-170 247 -703 415 -1184 169 -480 318 -895 331 -920 28 -57 90 -115 153 -144
38 -17 67 -21 152 -22 95 0 110 3 162 28 79 39 140 102 171 179 49 117 829
2353 839 2406 13 61 0 141 -33 209 -28 58 -108 127 -175 152 -69 26 -189 28
-260 4 -64 -21 -163 -119 -186 -183 -9 -25 -126 -378 -259 -785 -133 -407
-245 -745 -248 -752 -3 -6 -116 324 -251 735 -135 411 -257 772 -271 802 -38
79 -90 134 -161 169 -54 27 -71 31 -142 30 -45 0 -99 -6 -122 -13z"/>
<path d="M10351 15539 c-65 -26 -138 -95 -168 -160 -12 -25 -234 -576 -494
-1225 l-473 -1179 0 -85 c-1 -73 3 -93 27 -141 32 -66 99 -132 165 -162 38
-18 66 -22 147 -22 87 0 106 3 148 25 55 27 122 95 157 157 13 24 54 111 90
195 l67 153 467 3 c256 1 473 -1 482 -6 8 -5 50 -86 94 -180 127 -281 190
-341 360 -350 109 -5 177 18 254 89 76 70 101 129 101 244 l0 90 -464 1160
c-255 638 -477 1186 -493 1218 -38 76 -90 133 -152 165 -44 22 -66 26 -156 29
-88 3 -114 0 -159 -18z m260 -1517 l107 -267 -215 -3 c-119 -1 -218 0 -221 3
-3 3 43 127 103 275 59 149 110 268 114 265 3 -3 54 -126 112 -273z"/>
<path d="M21790 15551 c-82 -26 -168 -99 -208 -176 l-27 -50 0 -1265 0 -1265
30 -53 c39 -71 112 -136 183 -162 76 -29 204 -25 275 10 61 29 128 96 159 157
l23 48 3 463 3 462 404 0 405 0 0 -407 c0 -225 4 -434 10 -467 18 -112 82
-200 185 -254 45 -24 61 -27 155 -27 94 0 110 3 155 27 66 34 137 111 161 173
18 48 19 92 19 1300 l0 1250 -26 55 c-32 66 -86 123 -154 158 -45 24 -61 27
-155 27 -90 0 -112 -3 -153 -24 -59 -29 -129 -96 -156 -149 -35 -68 -41 -152
-41 -575 l0 -407 -402 2 -403 3 -5 460 -5 460 -24 50 c-32 63 -93 124 -156
156 -40 19 -68 24 -140 26 -49 1 -101 -1 -115 -6z"/>
<path d="M30590 15544 c-89 -32 -163 -105 -197 -192 -17 -44 -18 -115 -18
-1287 l0 -1240 28 -57 c35 -71 109 -139 185 -170 l57 -23 550 0 550 0 67 33
c75 37 124 88 160 168 18 40 23 67 23 144 0 84 -3 102 -28 152 -34 69 -109
139 -175 164 -41 16 -89 19 -389 22 l-343 3 -2 1027 -3 1027 -23 50 c-29 63
-93 129 -157 163 -64 33 -213 42 -285 16z"/>
<path d="M2249 15536 c-102 -27 -171 -87 -218 -186 l-26 -55 -3 -1214 c-3
-1348 -6 -1272 63 -1376 36 -52 76 -89 135 -121 28 -15 56 -19 135 -19 89 0
106 3 150 27 71 37 133 102 169 178 l31 65 3 427 3 426 212 5 c241 5 279 13
422 82 120 58 216 134 295 232 142 176 210 378 210 623 0 280 -86 491 -274
675 -131 127 -271 198 -453 230 -112 20 -783 21 -854 1z m785 -696 c136 -66
153 -317 28 -420 -48 -40 -114 -52 -252 -48 l-115 3 -3 243 -2 242 152 0 c131
0 157 -3 192 -20z"/>
<path d="M4280 15537 c-93 -26 -163 -88 -209 -187 l-26 -55 -3 -1210 c-3
-1100 -1 -1216 14 -1272 30 -114 126 -217 228 -244 68 -18 183 -7 245 25 105
54 175 151 192 268 5 35 9 242 9 461 l0 397 48 0 c34 0 53 -5 64 -17 8 -10
134 -236 279 -503 295 -542 319 -576 432 -618 131 -49 271 -20 367 77 93 94
128 206 98 317 -9 31 -101 198 -231 421 -119 204 -217 376 -217 381 0 5 10 16
23 25 96 63 231 225 298 359 127 253 140 594 33 850 -62 148 -216 329 -349
410 -70 42 -163 81 -255 105 -56 14 -132 17 -530 19 -351 3 -476 0 -510 -9z
m905 -696 c49 -22 68 -43 95 -104 38 -85 24 -211 -31 -288 -11 -16 -39 -39
-62 -51 -39 -21 -55 -23 -247 -23 l-205 0 -3 243 -2 242 207 0 c180 0 213 -3
248 -19z"/>
<path d="M11663 15536 c-59 -19 -104 -49 -153 -102 -95 -103 -121 -241 -68
-356 34 -73 112 -152 186 -186 54 -26 66 -27 234 -30 l178 -4 2 -1041 3 -1042
22 -40 c28 -53 102 -121 161 -148 39 -18 66 -22 152 -22 92 0 112 3 161 26 65
31 119 82 151 142 l23 42 3 1042 2 1041 183 4 c171 3 185 5 238 29 67 32 148
110 180 176 35 70 35 207 -1 278 -31 64 -111 144 -175 175 l-50 25 -695 2
c-553 2 -704 -1 -737 -11z"/>
<path d="M13833 15532 c-73 -26 -127 -65 -168 -120 -70 -95 -66 -5 -63 -1368
l3 -1229 28 -53 c36 -69 98 -129 167 -161 l55 -26 595 0 595 0 55 26 c70 33
136 99 169 169 22 46 26 69 26 145 0 78 -4 97 -28 147 -34 69 -118 149 -184
174 -43 16 -90 19 -426 22 l-377 3 2 232 3 232 385 5 c423 5 418 5 501 71 203
161 153 499 -87 588 -52 20 -76 21 -429 21 l-375 0 0 224 0 225 378 3 c335 3
382 6 425 22 66 25 150 105 184 174 24 50 28 69 28 147 0 76 -4 99 -26 146
-15 32 -46 76 -69 99 -23 23 -67 54 -99 69 l-56 26 -580 2 c-538 3 -584 1
-632 -15z"/>
<path d="M15570 10446 c-1656 -822 -3120 -1554 -3137 -1568 -9 -7 34 -103 172
-376 101 -202 188 -373 193 -380 9 -13 233 96 2247 1098 578 287 1254 623
1503 746 l454 224 1271 -632 c2195 -1089 2918 -1448 2923 -1448 2 0 89 171
194 379 141 283 186 382 177 389 -34 28 -4548 2272 -4568 2272 -8 -1 -651
-317 -1429 -704z"/>
<path d="M14670 7664 c-578 -49 -1034 -156 -1540 -361 l-95 -39 -3 -2552 -2
-2552 1607 -1 c885 -1 1619 -2 1633 -3 14 -1 46 -14 73 -30 65 -39 134 -64
257 -93 91 -22 136 -26 331 -30 324 -8 499 21 684 112 51 25 101 44 111 43 11
0 745 0 1632 0 l1612 2 -2 2552 -3 2553 -105 43 c-277 115 -667 227 -962 277
-282 47 -444 58 -793 52 -385 -6 -573 -30 -915 -113 -400 -98 -877 -300 -1098
-465 l-52 -40 -58 45 c-363 284 -1010 514 -1632 580 -131 14 -589 27 -680 20z
m610 -488 c827 -98 1341 -396 1445 -838 13 -55 15 -311 15 -1942 l0 -1879 -62
59 c-241 229 -738 423 -1234 480 -174 20 -575 15 -729 -10 -414 -67 -792 -201
-1154 -410 -62 -36 -115 -66 -117 -66 -2 0 -4 970 -4 2155 l0 2155 58 29 c308
155 631 245 1027 285 97 10 627 -3 755 -18z m4240 13 c349 -31 648 -110 928
-244 l132 -64 0 -2156 c0 -1186 -3 -2154 -7 -2152 -5 2 -57 33 -118 67 -453
261 -945 409 -1415 428 -382 16 -695 -27 -1035 -140 -260 -86 -542 -237 -666
-357 l-47 -46 -7 160 c-3 88 -5 936 -3 1885 4 1921 -2 1759 72 1915 114 241
369 428 756 555 224 74 485 125 760 149 140 12 518 12 650 0z"/>
</g>
</svg>
