<?xml version="1.0" standalone="no"?>
<!DOCTYPE svg PUBLIC "-//W3C//DTD SVG 20010904//EN"
 "http://www.w3.org/TR/2001/REC-SVG-20010904/DTD/svg10.dtd">
<svg version="1.0" xmlns="http://www.w3.org/2000/svg"
 width="1133.000000pt" height="1043.000000pt" viewBox="0 0 1133.000000 1043.000000"
 preserveAspectRatio="xMidYMid meet">

<g transform="translate(0.000000,1043.000000) scale(0.100000,-0.100000)"
fill="#000000" stroke="none">
<path d="M4210 9111 c-1297 -644 -3131 -1559 -3138 -1566 -4 -3 356 -725 373
-749 14 -18 87 18 2240 1089 561 279 1233 612 1493 741 l472 233 393 -193
c215 -107 865 -429 1442 -716 1237 -615 2356 -1170 2361 -1170 6 0 386 762
382 765 -21 20 -4563 2275 -4580 2275 -7 -1 -654 -319 -1438 -709z"/>
<path d="M3310 6333 c-500 -36 -1026 -158 -1505 -350 l-120 -48 -3 -2552 -2
-2553 1607 -1 c885 -1 1614 -1 1621 0 7 1 54 -18 105 -44 168 -83 342 -115
627 -115 281 0 457 32 619 112 47 23 97 43 111 44 14 0 751 2 1638 2 l1612 2
-2 2552 -3 2553 -105 43 c-351 146 -774 257 -1175 309 -176 23 -798 26 -960 5
-435 -57 -836 -164 -1181 -316 -161 -71 -367 -184 -452 -247 l-52 -40 -58 45
c-364 285 -1008 513 -1632 580 -134 14 -585 27 -690 19z m630 -488 c827 -103
1331 -397 1435 -837 13 -55 15 -311 15 -1942 l0 -1878 -64 60 c-173 161 -524
330 -856 411 -278 67 -454 85 -768 78 -338 -8 -572 -49 -897 -159 -194 -66
-505 -212 -667 -314 -21 -13 -40 -24 -43 -24 -3 0 -5 970 -5 2155 l0 2155 58
29 c308 155 628 244 1027 285 95 10 646 -4 765 -19z m4390 -4 c308 -46 525
-110 768 -226 l132 -64 0 -2156 c0 -1186 -3 -2154 -7 -2152 -5 2 -57 33 -118
67 -360 207 -737 341 -1150 407 -155 25 -639 26 -802 1 -280 -43 -557 -126
-782 -234 -150 -72 -311 -174 -382 -243 l-47 -46 -7 160 c-3 88 -5 936 -3
1885 4 1921 -2 1759 72 1915 161 338 618 580 1276 675 237 34 321 39 625 35
227 -3 319 -8 425 -24z"/>
</g>
</svg>
